<svg width="24" height="24" viewBox="0 0 24 24" fill="none" xmlns="http://www.w3.org/2000/svg">
<path d="M22 7.7C22 7.1 21.6 6.5 21.2 6.2L14.9 2.3C14.6409 2.15272 14.348 2.07529 14.05 2.07529C13.752 2.07529 13.4591 2.15272 13.2 2.3L2.9 8.3C2.4 8.5 2 9.1 2 9.7V16.3C2 16.8 2.4 17.5 2.8 17.8L9.1 21.7C9.35908 21.8473 9.65198 21.9247 9.95 21.9247C10.248 21.9247 10.5409 21.8473 10.8 21.7L21.1 15.7C21.6 15.4 22 14.7 22 14.2V7.7Z" fill="#3C3C3C" fill-opacity="0.49" stroke="black" stroke-width="2" stroke-linecap="round" stroke-linejoin="round"/>
<path d="M10 21.9V14L2.1 9.1" stroke="black" stroke-width="2" stroke-linecap="round" stroke-linejoin="round"/>
<path d="M10 14L21.9 7.1" stroke="black" stroke-width="2" stroke-linecap="round" stroke-linejoin="round"/>
<path d="M14 19.8V11.7" stroke="black" stroke-width="2" stroke-linecap="round" stroke-linejoin="round"/>
<path d="M18 17.5V9.4" stroke="black" stroke-width="2" stroke-linecap="round" stroke-linejoin="round"/>
</svg>
